<svg width="17" height="16" viewBox="0 0 17 16" fill="none" xmlns="http://www.w3.org/2000/svg">
<g clip-path="url(#clip0_1_390)">
<path d="M16.344 8.18429C16.344 7.64047 16.2999 7.09371 16.2059 6.55872H8.66V9.63937H12.9812C12.8018 10.6329 12.2257 11.5119 11.382 12.0704V14.0693H13.96C15.4739 12.6759 16.344 10.6182 16.344 8.18429Z" fill="#4285F4"/>
<path d="M8.65999 16.0006C10.8176 16.0006 12.6372 15.2921 13.9629 14.0693L11.385 12.0704C10.6677 12.5583 9.74174 12.8347 8.66293 12.8347C6.57584 12.8347 4.80623 11.4266 4.17128 9.53354H1.51099V11.5942C2.86906 14.2956 5.63518 16.0006 8.65999 16.0006V16.0006Z" fill="#34A853"/>
<path d="M4.16836 9.53352C3.83325 8.53996 3.83325 7.46408 4.16836 6.47051V4.40988H1.511C0.376337 6.6704 0.376337 9.33364 1.511 11.5942L4.16836 9.53352V9.53352Z" fill="#FBBC04"/>
<path d="M8.65998 3.16644C9.80053 3.1488 10.9029 3.57798 11.7289 4.36578L14.0129 2.08174C12.5667 0.72367 10.6471 -0.0229773 8.65998 0.000539111C5.63518 0.000539111 2.86906 1.70548 1.51099 4.40987L4.16834 6.4705C4.80035 4.57449 6.5729 3.16644 8.65998 3.16644V3.16644Z" fill="#EA4335"/>
</g>
<defs>
<clipPath id="clip0_1_390">
<rect width="16" height="16" fill="white" transform="translate(0.5)"/>
</clipPath>
</defs>
</svg>
