<svg width="17" height="16" viewBox="0 0 17 16" fill="none" xmlns="http://www.w3.org/2000/svg">
<g clip-path="url(#clip0_1_369)">
<path d="M15.028 12.469C14.786 13.028 14.4996 13.5426 14.1678 14.0157C13.7154 14.6606 13.3451 15.107 13.0597 15.3549C12.6172 15.7618 12.1431 15.9702 11.6355 15.982C11.2711 15.982 10.8316 15.8783 10.32 15.668C9.80672 15.4586 9.33503 15.3549 8.90374 15.3549C8.4514 15.3549 7.96628 15.4586 7.44739 15.668C6.9277 15.8783 6.50905 15.988 6.18896 15.9988C5.70216 16.0196 5.21694 15.8052 4.73261 15.3549C4.42348 15.0853 4.03683 14.6231 3.57363 13.9683C3.07666 13.269 2.66808 12.4582 2.34799 11.5338C2.00519 10.5353 1.83334 9.56839 1.83334 8.63232C1.83334 7.56006 2.06504 6.63524 2.52912 5.86026C2.89385 5.23776 3.37907 4.74671 3.98636 4.38623C4.59365 4.02574 5.24983 3.84205 5.95647 3.83029C6.34313 3.83029 6.85017 3.94989 7.48027 4.18495C8.1086 4.42079 8.51204 4.54039 8.68893 4.54039C8.82117 4.54039 9.26935 4.40055 10.0291 4.12174C10.7476 3.86318 11.354 3.75612 11.8508 3.79829C13.1969 3.90693 14.2083 4.43758 14.8808 5.3936C13.6769 6.12306 13.0814 7.14476 13.0932 8.45544C13.1041 9.47634 13.4745 10.3259 14.2023 11.0004C14.5322 11.3135 14.9006 11.5555 15.3104 11.7273C15.2216 11.9851 15.1277 12.232 15.028 12.469V12.469ZM11.9407 0.320274C11.9407 1.12046 11.6483 1.86759 11.0656 2.55912C10.3625 3.38122 9.51191 3.85627 8.58957 3.78131C8.57782 3.68531 8.571 3.58427 8.571 3.47811C8.571 2.70993 8.90541 1.88783 9.49927 1.21565C9.79575 0.875319 10.1728 0.592335 10.6301 0.366593C11.0864 0.14422 11.518 0.0212425 11.9239 0.000183105C11.9357 0.107155 11.9407 0.214134 11.9407 0.320264V0.320274Z" fill="white"/>
</g>
<defs>
<clipPath id="clip0_1_369">
<rect width="16" height="16" fill="white" transform="translate(0.5)"/>
</clipPath>
</defs>
</svg>
