<svg width="130" height="42" viewBox="0 0 130 42" fill="none" xmlns="http://www.w3.org/2000/svg">
<path d="M0.261143 36.4545C0.279656 33.3389 2.6864 31.0208 5.83368 31.0393C8.83285 31.0579 11.2581 33.58 11.2211 36.6214C11.184 39.6258 8.68474 42.0367 5.63003 41.9996C2.57532 41.981 0.224116 39.5516 0.261143 36.4545Z" fill="#FEBC66"/>
<path d="M30.6614 8.97628C27.8138 3.48895 23.4868 0.492016 17.9209 0.112123C14.7035 -0.0989281 11.4675 0.0488086 8.23153 0.0699137C4.49629 0.112124 1.22334 2.96132 0.391236 7.09793C-0.348415 10.7491 0.187831 19.4022 0.187831 19.4022C0.187831 22.969 2.73962 25.9026 5.88314 25.9026C9.02665 25.9026 11.5784 22.9901 11.5784 19.4022V12.7119C12.9468 12.7119 14.2967 12.7119 15.665 12.7119C16.83 12.7119 17.9579 12.9652 18.9749 13.6405C21.1384 15.0968 22.1185 17.3128 22.1185 20.1198C22.137 24.8473 22.1185 29.5538 22.1185 34.2813C22.1185 34.5768 22.137 34.8512 22.1554 35.2311C22.4513 35.1256 22.6732 35.0411 22.8581 34.9567C31.9188 30.8201 35.6356 18.5791 30.6614 8.97628Z" fill="#8B5CF6"/>
<mask id="mask0_1_411" style="mask-type:luminance" maskUnits="userSpaceOnUse" x="0" y="0" width="33" height="36">
<path d="M30.6614 8.97628C27.8138 3.48895 23.4868 0.492016 17.9209 0.112123C14.7035 -0.0989281 11.4675 0.0488086 8.23153 0.0699137C4.49629 0.112124 1.22334 2.96132 0.391236 7.09793C-0.348415 10.7491 0.187831 19.4022 0.187831 19.4022C0.187831 22.969 2.73962 25.9026 5.88314 25.9026C9.02665 25.9026 11.5784 22.9901 11.5784 19.4022V12.7119C12.9468 12.7119 14.2967 12.7119 15.665 12.7119C16.83 12.7119 17.9579 12.9652 18.9749 13.6405C21.1384 15.0968 22.1185 17.3128 22.1185 20.1198C22.137 24.8473 22.1185 29.5538 22.1185 34.2813C22.1185 34.5768 22.137 34.8512 22.1554 35.2311C22.4513 35.1256 22.6732 35.0411 22.8581 34.9567C31.9188 30.8201 35.6356 18.5791 30.6614 8.97628Z" fill="white"/>
</mask>
<g mask="url(#mask0_1_411)">
<path opacity="0.27" d="M11.5786 12.943H5.47649C2.57336 12.943 0.206482 15.6445 0.206482 18.958V22.3137C0.206482 24.2976 1.63031 25.9438 3.38698 25.9438H7.02975C5.93877 24.5719 5.27309 22.7147 5.27309 20.6675C5.25459 16.4254 8.06527 13.0274 11.5786 12.943Z" fill="#ABABAB"/>
<path opacity="0.49" d="M11.5785 12.943C8.0652 13.0274 5.25453 16.4465 5.25453 20.6464C5.25453 22.6936 5.92022 24.5508 7.0112 25.9227H11.5785V12.943Z" fill="#606060"/>
</g>
<path d="M45.9659 31.8118C45.7106 31.8775 45.318 31.965 44.788 32.0307C44.2579 32.0963 43.7279 32.1401 43.1978 32.1401C42.6678 32.1401 42.2162 32.0963 41.8236 32.0088C41.431 31.9212 41.0972 31.768 40.8224 31.5273C40.5476 31.3084 40.3513 30.9802 40.2138 30.5862C40.0764 30.1704 40.0175 29.6451 40.0175 28.9885V11.0858C40.0175 10.5605 40.1549 10.1447 40.4101 9.86017C40.6654 9.57565 41.0384 9.33491 41.4899 9.15982C42.2555 8.85341 43.1389 8.63455 44.1401 8.50324C45.1217 8.37192 46.1229 8.28438 47.1241 8.28438C50.2652 8.28438 52.6602 9.0285 54.3289 10.5386C55.9976 12.0269 56.8221 14.0623 56.8221 16.6229C56.8221 17.8704 56.6454 18.9866 56.292 19.9934C55.9387 21.0001 55.4086 21.8537 54.7215 22.5759C54.0344 23.2982 53.151 23.8672 52.0909 24.2393C51.0308 24.6332 49.8136 24.8302 48.4198 24.8302H46.0051V31.8118H45.9659ZM47.7327 19.5994C48.6946 19.5994 49.421 19.3587 49.9314 18.8553C50.4418 18.3738 50.697 17.6078 50.697 16.6011C50.697 15.6381 50.4222 14.9158 49.8922 14.3906C49.3621 13.8653 48.5768 13.6246 47.556 13.6246C47.183 13.6246 46.8885 13.6246 46.653 13.6246C46.4174 13.6246 46.1622 13.6902 45.9266 13.7996V19.5994H47.7327Z" fill="#404041"/>
<path d="M67.6199 32.1838C66.2849 32.1838 65.0285 31.965 63.8899 31.5491C62.7316 31.1333 61.75 30.4986 60.8863 29.6669C60.0421 28.8353 59.355 27.7848 58.8642 26.5154C58.3734 25.246 58.1378 23.7577 58.1378 22.0725C58.1378 20.4092 58.3734 18.9647 58.8642 17.761C59.355 16.5572 60.0028 15.5724 60.7881 14.7845C61.593 14.0185 62.496 13.4494 63.5169 13.0774C64.5377 12.7053 65.5782 12.5302 66.6579 12.5302C67.8554 12.5302 68.9548 12.7272 69.956 13.143C70.9376 13.5589 71.8014 14.106 72.5081 14.8064C73.2148 15.5067 73.7842 16.3603 74.1768 17.3451C74.5694 18.33 74.7657 19.4024 74.7657 20.5843C74.7657 21.4378 74.5498 22.1163 74.1179 22.554C73.686 23.0136 73.0774 23.2981 72.3118 23.4294L63.8899 24.8301C64.1451 25.6618 64.6555 26.2965 65.4211 26.7123C66.1868 27.1282 67.0898 27.347 68.091 27.347C69.0137 27.347 69.8971 27.2157 70.7413 26.9531C71.5658 26.6905 72.2529 26.384 72.7633 26.012C73.1363 26.2746 73.4308 26.6248 73.686 27.0844C73.9412 27.544 74.059 28.0255 74.059 28.5289C74.059 29.6669 73.5878 30.5205 72.6259 31.0677C71.8995 31.5054 71.075 31.7899 70.172 31.9431C69.2689 32.1182 68.4247 32.1838 67.6199 32.1838ZM66.6775 17.2357C66.1279 17.2357 65.6567 17.3451 65.2641 17.5421C64.8714 17.7391 64.5377 18.0017 64.2825 18.33C64.0273 18.6583 63.8506 19.0085 63.7132 19.4024C63.5954 19.7964 63.5169 20.1903 63.4972 20.6061L69.3278 19.5337C69.2689 19.0304 69.0137 18.527 68.5818 18.0017C68.1499 17.4983 67.5217 17.2357 66.6775 17.2357Z" fill="#404041"/>
<path d="M91.57 26.0338C91.57 27.9597 90.9222 29.4699 89.6265 30.5642C88.3309 31.6585 86.4266 32.2056 83.8941 32.2056C82.9322 32.2056 82.0488 32.14 81.2242 31.9868C80.3997 31.8336 79.7126 31.5928 79.1237 31.2864C78.5347 30.98 78.0832 30.5642 77.7495 30.0827C77.4157 29.6012 77.2587 29.0322 77.2587 28.3756C77.2587 27.7628 77.3765 27.2594 77.5924 26.8436C77.828 26.4277 78.0832 26.0775 78.4169 25.793C79.0844 26.2089 79.8304 26.559 80.6942 26.8873C81.5384 27.2156 82.5396 27.3688 83.6389 27.3688C84.3457 27.3688 84.8757 27.2594 85.2683 27.0186C85.6413 26.7998 85.8376 26.4934 85.8376 26.0994C85.8376 25.7493 85.7002 25.4647 85.4254 25.2678C85.1506 25.0708 84.699 24.8957 84.0512 24.7644L83.0303 24.5455C81.0476 24.1078 79.5752 23.4293 78.6133 22.5101C77.6513 21.5909 77.1605 20.2559 77.1605 18.5269C77.1605 17.5858 77.3372 16.7322 77.7102 15.9881C78.0832 15.2221 78.5936 14.5874 79.2415 14.084C79.9089 13.5806 80.6942 13.1867 81.6169 12.9022C82.5396 12.6177 83.5604 12.4863 84.6794 12.4863C85.5236 12.4863 86.3088 12.552 87.0548 12.7052C87.8008 12.8365 88.429 13.0554 88.9787 13.3399C89.5284 13.6244 89.9603 13.9746 90.2744 14.4342C90.5885 14.8719 90.7455 15.3972 90.7455 16.01C90.7455 16.6009 90.6474 17.1043 90.4511 17.5201C90.2547 17.936 90.0192 18.2861 89.7247 18.5706C89.548 18.4393 89.2732 18.308 88.9002 18.1767C88.5272 18.0454 88.1345 17.9141 87.7026 17.8046C87.2707 17.6952 86.8389 17.5858 86.3873 17.5201C85.9358 17.4545 85.5432 17.4107 85.1702 17.4107C84.4242 17.4107 83.8352 17.4982 83.423 17.6952C83.0107 17.8922 82.8144 18.1767 82.8144 18.5925C82.8144 18.8771 82.9322 19.0959 83.1481 19.271C83.3837 19.4461 83.8156 19.6212 84.4438 19.7744L85.5039 20.037C87.683 20.5842 89.2339 21.3721 90.1566 22.335C91.1185 23.2324 91.57 24.4799 91.57 26.0338Z" fill="#404041"/>
<path d="M110.75 31.8123C110.515 31.878 110.161 31.9655 109.671 32.0312C109.18 32.0969 108.669 32.1406 108.159 32.1406C107.668 32.1406 107.217 32.0969 106.804 32.0312C106.412 31.9655 106.078 31.8123 105.803 31.5716C105.528 31.3527 105.312 31.0244 105.175 30.6305C105.018 30.2366 104.959 29.7332 104.959 29.0985V20.6505C104.959 19.6218 104.723 18.8777 104.252 18.4619C103.781 18.0461 103.212 17.8272 102.525 17.8272C102.073 17.8272 101.641 17.8929 101.229 18.0242C100.817 18.1555 100.483 18.3087 100.247 18.4838V31.7905C100.012 31.8561 99.6585 31.9437 99.1677 32.0093C98.6769 32.075 98.1665 32.1187 97.656 32.1187C97.1653 32.1187 96.7137 32.075 96.3015 32.0093C95.9089 31.9437 95.5751 31.7905 95.3003 31.5497C95.0254 31.3309 94.8095 31.0244 94.6721 30.6305C94.515 30.2366 94.4561 29.7332 94.4561 29.0985V7.23437C94.7113 7.1906 95.0843 7.12494 95.5555 7.0374C96.0463 6.94986 96.5371 6.90608 97.0475 6.90608C97.5383 6.90608 97.9898 6.94985 98.402 7.01551C98.7947 7.08117 99.1284 7.23437 99.4033 7.45323C99.6781 7.67209 99.894 7.9785 100.031 8.35056C100.189 8.72262 100.247 9.226 100.247 9.83881V13.4719C100.542 13.3406 100.993 13.2092 101.602 13.0342C102.211 12.8591 102.878 12.7934 103.604 12.7934C105.862 12.7934 107.609 13.4281 108.866 14.6756C110.122 15.9231 110.75 17.8053 110.75 20.2784V31.8123Z" fill="#404041"/>
<path d="M121.155 12.5302C122.392 12.5302 123.511 12.6615 124.512 12.946C125.533 13.2306 126.397 13.6464 127.104 14.2154C127.81 14.7845 128.38 15.5067 128.753 16.3821C129.145 17.2576 129.342 18.2862 129.342 19.49V28.0036C129.342 28.6602 129.185 29.2073 128.851 29.6232C128.517 30.039 128.125 30.4111 127.673 30.7175C126.201 31.7023 124.12 32.2057 121.43 32.2057C120.233 32.2057 119.133 32.0744 118.171 31.8337C117.209 31.571 116.365 31.199 115.678 30.6956C114.991 30.1922 114.441 29.5356 114.068 28.7477C113.695 27.9598 113.499 27.0406 113.499 26.012C113.499 24.2611 113.97 22.9261 114.893 21.985C115.816 21.0439 117.268 20.4529 119.232 20.2341L123.707 19.7088V19.4462C123.707 18.7021 123.413 18.1768 122.844 17.8704C122.255 17.564 121.43 17.3889 120.331 17.3889C119.467 17.3889 118.623 17.4983 117.798 17.6953C116.974 17.8923 116.248 18.1549 115.58 18.4613C115.286 18.2425 115.03 17.8923 114.834 17.4108C114.638 16.9512 114.52 16.4478 114.52 15.9444C114.52 15.2878 114.657 14.7626 114.952 14.3686C115.227 13.9747 115.678 13.6464 116.267 13.3619C116.935 13.0774 117.7 12.8804 118.603 12.7491C119.506 12.5959 120.351 12.5302 121.155 12.5302ZM121.43 27.4783C121.823 27.4783 122.235 27.4346 122.706 27.347C123.177 27.2595 123.511 27.1282 123.747 26.975V23.9328L121.293 24.1517C120.665 24.1954 120.135 24.3487 119.722 24.6113C119.31 24.8739 119.114 25.246 119.114 25.7494C119.114 26.2527 119.29 26.6686 119.644 26.975C119.978 27.3251 120.586 27.4783 121.43 27.4783Z" fill="#404041"/>
</svg>
